<svg xmlns="http://www.w3.org/2000/svg" viewBox="0 0 273 366.07"><defs><style>.cls-1,.cls-6,.cls-7{fill:none;}.cls-1,.cls-2{stroke:#000;stroke-width:8px;}.cls-1,.cls-2,.cls-3,.cls-4,.cls-5,.cls-6,.cls-7{stroke-miterlimit:10;}.cls-3,.cls-4,.cls-5,.cls-6,.cls-7{stroke:#fff;}.cls-4,.cls-7{stroke-width:2px;}.cls-5{stroke-width:4px;}.cls-8{fill:#fff;}</style></defs><title>Asset 1</title><g id="Layer_2" data-name="Layer 2"><g id="Shield"><path class="cls-1" d="M137,362h0A163.14,163.14,0,0,1,4,201.67V4H269V202.65A162.18,162.18,0,0,1,137,362Z"/><g id="Layer_2-2" data-name="Layer 2"><rect class="cls-2" x="4" y="149" width="265" height="25"/><polygon class="cls-2" points="150 359 137 361 123 358 124 4 149 4 150 359"/></g></g><g id="Crow"><path class="cls-3" d="M59.37,261.71l-12.3,11.09s-2.58,1.67-2,3.49c0,0,1.52-2.43,3.34-2.13A4.67,4.67,0,0,1,52.38,272s5.77,0,5.77.91c0,0,3.34-1.21,3.65,2.43,0,0,2.28-5-2.89-4.1l-2.43-.61s-2.58-.76-1.37-2l5.65-6.1Z"/><path class="cls-3" d="M72.46,262.17l-7.78,9.1s-4.56,3-3.95,4.86c0,0,.91-2.13,2.73-1.82,0,0,.91-.91,3.64-.91,0,0,4.56-.3,4.56.61,0,0,5.92-2.58,6.23,1.06,0,0-.46-4.4-5.62-3.49H70.76s-1.82-.3-1.21-1.82l3-6.07Z"/><path class="cls-4" d="M79.27,259.12a4.33,4.33,0,0,0-2.43-1.21L72.58,264l-1.22-.91c.91-2.43-.91-7-.91-7-.3,1.21-3.95.91-3.95.91l-2.13-1.52c.61,5.47-3.34,7.29-3.34,7.29l-1.82-1.22c2.43-3.64-2.73-8.2-2.73-8.2a30,30,0,0,1-12.15-15.09S82.3,246.67,79.27,259.12Z"/><path class="cls-3" d="M79.57,257.6H76.23c-1.52.3-4.86-3.95-4.86-3.95l-.3,1.22c-3-.61-6.38-6.08-6.38-6.08l10.23.81Z"/><path class="cls-5" d="M103.68,269,76.23,252.14s14.28,26.12,22.48,26.12a5.93,5.93,0,0,0,4.86-.61s3,2.43,5.16.91c0,0,4.17-1.81-5.05-9.56"/><path class="cls-6" d="M89.59,265.2s8.25,13.45,12.33,13.41"/><path class="cls-4" d="M39.78,223.58c-2.34,10.51,8.81,18.53,8.81,18.53s2.73,1.82,1.82-.91c0,0,7.9,7.9,12.15,6.38,0,0,7,4.25,9.72,3.34,0,0,26.06,16.13,31.29,20.13a.52.52,0,0,0,.83-.49C104,268,102,261.43,92.33,249.71a3.07,3.07,0,0,0,1.68.13c.41-.2.43-.79-.76-2.25,0,0-22.9-31.22-29.68-32.62s-15,3.76-15,3.76a2.51,2.51,0,0,0-2.51-.53C44.64,218.72,40.39,220.85,39.78,223.58Z"/><path class="cls-7" d="M69.55,227.84c.72.69,9.43,10.82,7,7.9,0,0,4.56,6.08,5.16,6.68,0,0,2.43,1.52,2.73,0,0,0,3.34,5.16,7.9,7.29l.61.3,1.17.52"/><path class="cls-7" d="M97.49,270.36s5.76,7.61,8.8,8.36"/><path class="cls-7" d="M55,238.47s19.74,14,27.64,11.54c0,0,8.81,4.25,7.9-.3l-.17-1.16"/><path class="cls-4" d="M41.3,199.59s-10,0-10.63,3.95L39.78,206s6.38,3.34.3,13.36a9.16,9.16,0,0,0-1.21,5.77s5.47-9.42,9.72-6.38a21.85,21.85,0,0,1,15.79-3.65s-2.73-11.24-8.5-15.79C55.88,199.28,48.59,192.91,41.3,199.59Z"/><path class="cls-8" d="M50.11,201.56c0-1.56-2.23-1.37-1.37-1.37-.75,0-2,.31-2,1.06a1.37,1.37,0,0,0,1.37,1.37C48.89,202.63,50.11,202.32,50.11,201.56Z"/><path class="cls-5" d="M5,236.19"/></g><g id="Crow_copy" data-name="Crow copy"><path class="cls-3" d="M191.37,262.71l-12.3,11.09s-2.58,1.67-2,3.49c0,0,1.52-2.43,3.34-2.13a4.67,4.67,0,0,1,3.95-2.13s5.77,0,5.77.91c0,0,3.34-1.21,3.65,2.43,0,0,2.28-5-2.89-4.1l-2.43-.61s-2.58-.76-1.37-2l5.65-6.1Z"/><path class="cls-3" d="M204.46,263.17l-7.78,9.1s-4.56,3-3.95,4.86c0,0,.91-2.13,2.73-1.82,0,0,.91-.91,3.64-.91,0,0,4.56-.3,4.56.61,0,0,5.92-2.58,6.23,1.06,0,0-.46-4.4-5.62-3.49h-1.52s-1.82-.3-1.22-1.82l3-6.07Z"/><path class="cls-4" d="M211.27,260.12a4.33,4.33,0,0,0-2.43-1.21L204.58,265l-1.21-.91c.91-2.43-.91-7-.91-7-.3,1.21-3.95.91-3.95.91l-2.13-1.52c.61,5.47-3.34,7.29-3.34,7.29l-1.82-1.22c2.43-3.64-2.73-8.2-2.73-8.2a30,30,0,0,1-12.15-15.09S214.3,247.67,211.27,260.12Z"/><path class="cls-3" d="M211.57,258.6h-3.34c-1.52.3-4.86-3.95-4.86-3.95l-.3,1.22c-3-.61-6.38-6.08-6.38-6.08l10.23.81Z"/><path class="cls-5" d="M235.68,270l-27.45-16.86s14.28,26.12,22.48,26.12a5.93,5.93,0,0,0,4.86-.61s3,2.43,5.16.91c0,0,4.17-1.81-5.05-9.56"/><path class="cls-6" d="M221.59,266.2s8.25,13.45,12.33,13.41"/><path class="cls-4" d="M171.78,224.58c-2.34,10.51,8.81,18.53,8.81,18.53s2.73,1.82,1.82-.91c0,0,7.9,7.9,12.15,6.38,0,0,7,4.25,9.72,3.34,0,0,26.06,16.13,31.29,20.13a.52.52,0,0,0,.83-.49c-.39-2.59-2.38-9.13-12.08-20.85a3.07,3.07,0,0,0,1.68.13c.41-.2.43-.79-.76-2.25,0,0-22.9-31.22-29.68-32.62s-15,3.76-15,3.76a2.51,2.51,0,0,0-2.51-.53C176.64,219.72,172.39,221.85,171.78,224.58Z"/><path class="cls-7" d="M201.55,228.84c.72.69,9.43,10.82,7,7.9,0,0,4.56,6.08,5.16,6.68,0,0,2.43,1.52,2.73,0,0,0,3.34,5.16,7.9,7.29l.61.3,1.17.52"/><path class="cls-7" d="M229.49,271.36s5.76,7.61,8.8,8.36"/><path class="cls-7" d="M187,239.47s19.74,14,27.64,11.54c0,0,8.81,4.25,7.9-.3l-.17-1.16"/><path class="cls-4" d="M173.3,200.59s-10,0-10.63,3.95l9.11,2.43s6.38,3.34.3,13.36a9.16,9.16,0,0,0-1.21,5.77s5.47-9.42,9.72-6.38a21.85,21.85,0,0,1,15.79-3.65s-2.73-11.24-8.5-15.79C187.88,200.28,180.59,193.91,173.3,200.59Z"/><path class="cls-8" d="M182.11,202.56c0-1.56-2.23-1.37-1.37-1.37-.75,0-2,.31-2,1.06a1.37,1.37,0,0,0,1.37,1.37C180.89,203.63,182.11,203.32,182.11,202.56Z"/><path class="cls-5" d="M5,236.19"/></g><g id="Crow_copy_3" data-name="Crow copy 3"><path class="cls-3" d="M53.37,105.71l-12.3,11.09s-2.58,1.67-2,3.49c0,0,1.52-2.43,3.34-2.13A4.67,4.67,0,0,1,46.38,116s5.77,0,5.77.91c0,0,3.34-1.22,3.65,2.43,0,0,2.28-5-2.89-4.1l-2.43-.61s-2.58-.76-1.37-2l5.65-6.1Z"/><path class="cls-3" d="M66.46,106.17l-7.78,9.1s-4.56,3-3.95,4.86c0,0,.91-2.13,2.73-1.82,0,0,.91-.91,3.64-.91,0,0,4.56-.3,4.56.61,0,0,5.92-2.58,6.23,1.06,0,0-.46-4.4-5.62-3.49H64.76s-1.82-.3-1.21-1.82l3-6.08Z"/><path class="cls-4" d="M73.27,103.12a4.33,4.33,0,0,0-2.43-1.22L66.58,108l-1.22-.91c.91-2.43-.91-7-.91-7-.3,1.22-3.95.91-3.95.91l-2.13-1.52c.61,5.47-3.34,7.29-3.34,7.29l-1.82-1.22c2.43-3.64-2.73-8.2-2.73-8.2A30,30,0,0,1,38.33,82.26S76.3,90.67,73.27,103.12Z"/><path class="cls-3" d="M73.57,101.6H70.23c-1.52.3-4.86-3.95-4.86-3.95l-.3,1.21c-3-.61-6.38-6.07-6.38-6.07l10.23.81Z"/><path class="cls-5" d="M97.68,113,70.23,96.14s14.28,26.12,22.48,26.12a5.93,5.93,0,0,0,4.86-.61s3,2.43,5.16.91c0,0,4.17-1.81-5.05-9.56"/><path class="cls-6" d="M83.59,109.2s8.25,13.45,12.33,13.41"/><path class="cls-4" d="M33.78,67.58c-2.34,10.51,8.81,18.53,8.81,18.53s2.73,1.82,1.82-.91c0,0,7.9,7.9,12.15,6.38,0,0,7,4.25,9.72,3.34,0,0,26.06,16.13,31.29,20.13a.52.52,0,0,0,.83-.49C98,112,96,105.43,86.33,93.71a3.07,3.07,0,0,0,1.68.13c.41-.2.43-.79-.76-2.25,0,0-22.9-31.22-29.68-32.62s-15,3.76-15,3.76a2.51,2.51,0,0,0-2.51-.53C38.64,62.72,34.39,64.85,33.78,67.58Z"/><path class="cls-7" d="M63.55,71.84c.72.69,9.43,10.82,7,7.9,0,0,4.56,6.08,5.16,6.68,0,0,2.43,1.52,2.73,0,0,0,3.34,5.16,7.9,7.29l.61.3,1.17.52"/><path class="cls-7" d="M91.49,114.36s5.76,7.61,8.8,8.36"/><path class="cls-7" d="M49,82.47S68.71,96.44,76.61,94c0,0,8.81,4.25,7.9-.3l-.17-1.16"/><path class="cls-4" d="M35.3,43.59s-10,0-10.63,3.95L33.78,50s6.38,3.34.3,13.37a9.16,9.16,0,0,0-1.21,5.77s5.47-9.42,9.72-6.38a21.85,21.85,0,0,1,15.79-3.64s-2.73-11.24-8.5-15.8C49.88,43.28,42.59,36.91,35.3,43.59Z"/><path class="cls-8" d="M44.11,45.56c0-1.56-2.23-1.37-1.37-1.37-.75,0-2,.31-2,1.06a1.37,1.37,0,0,0,1.37,1.37C42.89,46.63,44.11,46.32,44.11,45.56Z"/><path class="cls-5" d="M5,236.19"/></g><g id="Crow_copy_2" data-name="Crow copy 2"><path class="cls-3" d="M198.37,105.71l-12.3,11.09s-2.58,1.67-2,3.49c0,0,1.52-2.43,3.34-2.13a4.67,4.67,0,0,1,3.95-2.13s5.77,0,5.77.91c0,0,3.34-1.22,3.65,2.43,0,0,2.28-5-2.89-4.1l-2.43-.61s-2.58-.76-1.37-2l5.65-6.1Z"/><path class="cls-3" d="M211.46,106.17l-7.78,9.1s-4.56,3-3.95,4.86c0,0,.91-2.13,2.73-1.82,0,0,.91-.91,3.64-.91,0,0,4.56-.3,4.56.61,0,0,5.92-2.58,6.23,1.06,0,0-.46-4.4-5.62-3.49h-1.52s-1.82-.3-1.22-1.82l3-6.08Z"/><path class="cls-4" d="M218.27,103.12a4.33,4.33,0,0,0-2.43-1.22L211.58,108l-1.21-.91c.91-2.43-.91-7-.91-7-.3,1.22-3.95.91-3.95.91l-2.13-1.52c.61,5.47-3.34,7.29-3.34,7.29l-1.82-1.22c2.43-3.64-2.73-8.2-2.73-8.2a30,30,0,0,1-12.15-15.09S221.3,90.67,218.27,103.12Z"/><path class="cls-3" d="M218.57,101.6h-3.34c-1.52.3-4.86-3.95-4.86-3.95l-.3,1.21c-3-.61-6.38-6.07-6.38-6.07l10.23.81Z"/><path class="cls-5" d="M242.68,113,215.23,96.14s14.28,26.12,22.48,26.12a5.93,5.93,0,0,0,4.86-.61s3,2.43,5.16.91c0,0,4.17-1.81-5.05-9.56"/><path class="cls-6" d="M228.59,109.2s8.25,13.45,12.33,13.41"/><path class="cls-4" d="M178.78,67.58c-2.34,10.51,8.81,18.53,8.81,18.53s2.73,1.82,1.82-.91c0,0,7.9,7.9,12.15,6.38,0,0,7,4.25,9.72,3.34,0,0,26.06,16.13,31.29,20.13a.52.52,0,0,0,.83-.49C243,112,241,105.43,231.33,93.71a3.07,3.07,0,0,0,1.68.13c.41-.2.43-.79-.76-2.25,0,0-22.9-31.22-29.68-32.62s-15,3.76-15,3.76a2.51,2.51,0,0,0-2.51-.53C183.64,62.72,179.39,64.85,178.78,67.58Z"/><path class="cls-7" d="M208.55,71.84c.72.69,9.43,10.82,7,7.9,0,0,4.56,6.08,5.16,6.68,0,0,2.43,1.52,2.73,0,0,0,3.34,5.16,7.9,7.29l.61.3,1.17.52"/><path class="cls-7" d="M236.49,114.36s5.76,7.61,8.8,8.36"/><path class="cls-7" d="M194,82.47s19.74,14,27.64,11.54c0,0,8.81,4.25,7.9-.3l-.17-1.16"/><path class="cls-4" d="M180.3,43.59s-10,0-10.63,3.95L178.78,50s6.38,3.34.3,13.37a9.16,9.16,0,0,0-1.21,5.77s5.47-9.42,9.72-6.38a21.85,21.85,0,0,1,15.79-3.64s-2.73-11.24-8.5-15.8C194.88,43.28,187.59,36.91,180.3,43.59Z"/><path class="cls-8" d="M189.11,45.56c0-1.56-2.23-1.37-1.37-1.37-.75,0-2,.31-2,1.06a1.37,1.37,0,0,0,1.37,1.37C187.89,46.63,189.11,46.32,189.11,45.56Z"/><path class="cls-5" d="M5,236.19"/></g></g></svg>